<svg xmlns="http://www.w3.org/2000/svg" viewBox="0 0 512 512" fill="currentColor">
  <path d="M168 80c-39.8 0-72 32.2-72 72v208c0 39.8 32.2 72 72 72h176c39.8 0 72-32.2 72-72V152c0-39.8-32.2-72-72-72H168zm0 48h176c13.3 0 24 10.7 24 24v208c0 13.3-10.7 24-24 24H168c-13.3 0-24-10.7-24-24V152c0-13.3 10.7-24 24-24zm24 64c-8.8 0-16 7.2-16 16v32c0 8.8 7.2 16 16 16h128c8.8 0 16-7.2 16-16v-32c0-8.8-7.2-16-16-16H192zm0 96c-8.8 0-16 7.2-16 16v32c0 8.8 7.2 16 16 16h80c8.8 0 16-7.2 16-16v-32c0-8.8-7.2-16-16-16H192z"/>
</svg>