<svg xmlns="http://www.w3.org/2000/svg" viewBox="0 0 496 512" fill="currentColor">
  <path d="M165.9 397.4c0 2-2.3 3.6-5.2 3.6-3.3.3-5.6-1.3-5.6-3.6 0-2 2.3-3.6 5.2-3.6 3-.3 5.6 1.3 5.6 3.6zm-31.1-4.5c-.7 2 1.3 4.3 4.3 4.9 2.6 1 5.6 0 6.2-2s-1.3-4.3-4.3-5.2c-2.6-.7-5.5.3-6.2 2.3zm44.2-1.7c-2.9.7-4.9 2.6-4.6 4.9.3 2 2.9 3.3 5.9 2.6 2.9-.7 4.9-2.6 4.6-4.6-.3-2.3-3-3.3-5.9-2.9zM244.8 8C106.1 8 0 113.3 0 252c0 110.9 69.8 205.8 169.5 239.2 12.8 2.3 17.3-5.6 17.3-12.1 0-6.2-.3-40.4-.3-61.4 0 0-70 15-84.7-29.8 0 0-11.4-29.1-27.8-36.6 0 0-22.7-15.5 1.6-15.2 0 0 24.6 2 37.6 25.3 21.4 37.6 56.1 27 69.8 20.5 2.2-16.1 8.3-27 15.2-33.2-55.2-6.2-112.9-27.6-112.9-123.2 0-27.2 9.7-49.6 25.6-67.1-2.6-6.3-11.1-31.8 2.4-66.2 0 0 20.9-6.7 68.5 25.6 19.9-5.5 41.2-8.3 62.4-8.3s42.5 2.8 62.4 8.3c47.6-32.4 68.5-25.6 68.5-25.6 13.5 34.4 5 59.9 2.4 66.2 15.9 17.5 25.6 39.9 25.6 67.1 0 95.6-57.7 117-112.9 123.2 8.9 7.7 16.8 22.9 16.8 46.1 0 33.3-.3 75.6-.3 84.9 0 6.5 4.5 14.4 17.3 12.1C426.2 457.8 496 362.9 496 252 496 113.3 383.5 8 244.8 8z"/>
</svg>